<?xml version="1.0" encoding="utf-8"?>
<!-- Generator: Adobe Illustrator 21.1.0, SVG Export Plug-In . SVG Version: 6.00 Build 0)  -->
<svg version="1.1" id="Calque_1" xmlns="http://www.w3.org/2000/svg" xmlns:xlink="http://www.w3.org/1999/xlink" x="0px" y="0px"
	 viewBox="0 0 595.3 595.3" style="enable-background:new 0 0 595.3 595.3;" xml:space="preserve">
<style type="text/css">
	.st0{fill:#FFFFFF;}
</style>
<path class="st0" d="M344.7,156.5c20.9,0,42.4,0,63,0c0-11.3,0-58.5,0-94.5c-27.5,0-58.8,0-72.5,0c-102.7,0-100.3,82.8-100.3,95.2
	c0,3,0,27.4,0,62.4h-47.7V314h47.7c0,103.7,0,220.5,0,220.5h94.1c0,0,0-118.9,0-220.5h63l15.8-94.5h-78.8c0-27.3,0-45.4,0-47.3
	C328.9,161.9,334.8,156.5,344.7,156.5z"/>
</svg>
