<?xml version="1.0" encoding="utf-8"?>
<!-- Generator: Adobe Illustrator 21.1.0, SVG Export Plug-In . SVG Version: 6.00 Build 0)  -->
<svg version="1.1" id="Calque_1" xmlns="http://www.w3.org/2000/svg" xmlns:xlink="http://www.w3.org/1999/xlink" x="0px" y="0px"
	 viewBox="0 0 595.3 595.3" style="enable-background:new 0 0 595.3 595.3;" xml:space="preserve">
<style type="text/css">
	.st0{fill:#FFFFFF;}
</style>
<g id="XMLID_112_">
	<path id="XMLID_117_" class="st0" d="M408.4,54.1H186.9c-67.9,0-123.5,56.7-123.5,126.1v216.2c0,69.4,55.6,126.1,123.5,126.1h221.5
		c67.9,0,123.5-56.7,123.5-126.1V180.2C531.8,110.8,476.3,54.1,408.4,54.1z M489.9,393.2c0,48-38.5,87.3-85.5,87.3H190.8
		c-47,0-85.5-39.3-85.5-87.3v-210c0-48,38.5-87.3,85.5-87.3l213.6,0c47,0,85.5,39.3,85.5,87.3V393.2z"/>
	<path id="XMLID_114_" class="st0" d="M297.6,168c-65,0-117.8,53.8-117.8,120.3c0,66.4,52.7,120.3,117.8,120.3
		s117.8-53.8,117.8-120.3S362.7,168,297.6,168z M297.6,365.9c-42,0-76-34.7-76-77.6c0-42.9,34-77.6,76-77.6c42,0,76,34.7,76,77.6
		C373.6,331.2,339.6,365.9,297.6,365.9z"/>
	<ellipse id="XMLID_71_" class="st0" cx="421.7" cy="161.6" rx="26.6" ry="27.2"/>
</g>
</svg>
