<?xml version="1.0" encoding="utf-8"?>
<!-- Generator: Adobe Illustrator 21.1.0, SVG Export Plug-In . SVG Version: 6.00 Build 0)  -->
<svg version="1.1" id="Calque_1" xmlns="http://www.w3.org/2000/svg" xmlns:xlink="http://www.w3.org/1999/xlink" x="0px" y="0px"
	 viewBox="0 0 595.3 595.3" style="enable-background:new 0 0 595.3 595.3;" xml:space="preserve">
<style type="text/css">
	.st0{fill:#FFFFFF;}
</style>
<g>
	<path class="st0" d="M297.3,40.6c-142.7,0-258.6,115.9-258.6,258.6C38.7,442.1,154.6,558,297.3,558
		c142.9,0,258.8-115.9,258.8-258.8C556.1,156.5,440.2,40.6,297.3,40.6L297.3,40.6z M416.8,450.9c-3.2,5.9-9.3,9.2-15.4,9.2
		c-3,0-5.9-0.6-8.7-2.2c-41.4-22.7-88.4-34.9-135.9-34.9c-28.5,0-56.7,4.2-83.5,12.6c-9.5,2.9-19.4-2.3-22.3-11.7
		c-2.8-9.3,2.4-29.2,11.7-32.2c30.5-9.3,62.1-14.2,94.1-14.2c53.5,0,106.5,13.6,153.2,39.3C418.6,421.6,421.6,442.2,416.8,450.9
		L416.8,450.9z M449.7,353.5c-3.6,7.1-10.9,18.6-18.3,18.6c-3.3,0-6.5-0.8-9.6-2.3c-51.3-26.7-106.8-40.1-165-40.1
		c-32.1,0-63.8,4.1-94.6,12.7c-11.1,3-22.4-3.5-25.4-14.6c-3-11.2,3.5-30,14.5-33c34.3-9.3,69.8-14.1,105.5-14.1
		c63.9,0,127.7,15.5,184.1,44.9C451.1,330.8,455.1,343.2,449.7,353.5L449.7,353.5z M463.4,275.4c-3.5,0-7.1-0.8-10.4-2.4
		c-61.3-30.6-127.2-46.1-196.2-46.1c-35.9,0-71.5,4.4-106.3,13c-12.8,3.2-25.6-4.6-28.7-17.2c-3.2-12.8,4.6-28.1,17.2-31.3
		c38.6-9.5,78-14.3,117.8-14.3c76.2,0,149.5,17.2,217.3,51c11.8,5.8,16.6,20,10.7,31.9C480.6,268.1,472.3,275.4,463.4,275.4
		L463.4,275.4z M463.4,275.4"/>
</g>
</svg>
