<?xml version="1.0" encoding="utf-8"?>
<!-- Generator: Adobe Illustrator 21.1.0, SVG Export Plug-In . SVG Version: 6.00 Build 0)  -->
<svg version="1.1" id="Calque_1" xmlns="http://www.w3.org/2000/svg" xmlns:xlink="http://www.w3.org/1999/xlink" x="0px" y="0px"
	 viewBox="0 0 595.3 595.3" style="enable-background:new 0 0 595.3 595.3;" xml:space="preserve">
<style type="text/css">
	.st0{fill:#FFFFFF;}
</style>
<path id="Twitter_2_" class="st0" d="M558.1,56c-21.9,13.3-46.1,22.9-71.9,28.1c-20.6-22.5-50-36.6-82.6-36.6
	c-62.4,0-113.1,51.9-113.1,116c0,9.1,1,17.9,2.9,26.4c-94-4.8-177.3-51-233.2-121.2C50.6,85.9,45,105.8,45,127.1
	c0,40.2,20,75.7,50.3,96.5c-18.5-0.6-36-5.8-51.3-14.5v1.4c0,56.2,39,103.1,90.8,113.7c-9.5,2.7-19.5,4.1-29.8,4.1
	c-7.3,0-14.4-0.7-21.3-2.1c14.4,46.1,56.1,79.6,105.7,80.5C150.7,438,101.9,456.5,49,456.5c-9.1,0-18.2-0.5-27-1.6
	C72,487.8,131.5,507,195.4,507c208.1,0,321.8-176.7,321.8-330c0-5-0.1-10.1-0.3-15c22.1-16.4,41.3-36.8,56.4-60
	c-20.3,9.2-42.1,15.5-65,18.3C531.7,105.8,549.7,83.1,558.1,56z"/>
</svg>
