<?xml version="1.0" encoding="utf-8"?>
<!-- Generator: Adobe Illustrator 21.1.0, SVG Export Plug-In . SVG Version: 6.00 Build 0)  -->
<svg version="1.1" id="Calque_1" xmlns="http://www.w3.org/2000/svg" xmlns:xlink="http://www.w3.org/1999/xlink" x="0px" y="0px"
	 viewBox="0 0 595.3 595.3" style="enable-background:new 0 0 595.3 595.3;" xml:space="preserve">
<style type="text/css">
	.st0{fill:#FFFFFF;}
</style>
<g id="XMLID_30_">
	<path id="XMLID_523_" class="st0" d="M357.9,389.2c-4.1,0-8.3,2-12.5,6v83.9c4.2,4.1,8.3,6.1,12.5,6.1c7.2,0,10.9-6.1,10.9-18.6
		V408C368.7,395.5,365,389.2,357.9,389.2L357.9,389.2z M357.9,389.2"/>
	<path id="XMLID_520_" class="st0" d="M449.1,389.2c-8.3,0-12.5,6.3-12.5,19.1V421h24.9v-12.7C461.5,395.5,457.4,389.2,449.1,389.2
		L449.1,389.2z M449.1,389.2"/>
	<path id="XMLID_513_" class="st0" d="M500.9,294.7c-15.7-16.3-33.3-16.4-41.3-17.4c-57.6-4.1-144.1-4.1-144.1-4.1h-0.2
		c0,0-86.4,0-144.1,4.1c-8,1-25.5,1-41.2,17.4c-12.3,12.4-16.3,40.6-16.3,40.6s-4.1,33.1-4.1,66.2v31.1c0,33.1,4.1,66.2,4.1,66.2
		s4,28.2,16.3,40.6c15.7,16.3,36.3,15.8,45.4,17.5c33,3.2,140.1,4.1,140.1,4.1s86.5-0.1,144.1-4.3c8-0.9,25.6-1,41.3-17.3
		c12.3-12.4,16.3-40.6,16.3-40.6s4.1-33.1,4.1-66.2v-31.1c0-33.1-4.1-66.2-4.1-66.2S513.3,307.2,500.9,294.7L500.9,294.7z
		 M200.4,506h-27.8V347.3h-29.4v-25.9h87v25.9h-29.9V506z M298.8,506h-25v-15c-9.9,11.4-19.4,16.9-28.5,16.9
		c-8,0-13.6-3.3-16.1-10.2c-1.3-4.2-2.2-10.8-2.2-20.5V368.4h25v101.2c0,5.8,0,8.9,0.2,9.7c0.6,3.9,2.6,5.9,5.9,5.9
		c5,0,10.2-3.9,15.8-11.7V368.4h25V506z M393.7,464.7c0,12.7-0.9,21.9-2.5,27.7c-3.3,10.2-10,15.4-19.9,15.4
		c-8.9,0-17.5-4.9-25.8-15.2V506h-25V321.4h25v60.3c8.1-9.9,16.6-14.9,25.8-14.9c9.9,0,16.6,5.3,19.9,15.5
		c1.7,5.6,2.5,14.6,2.5,27.7V464.7z M486.5,441.7h-49.9v24.4c0,12.8,4.2,19.1,12.7,19.1c6.2,0,9.7-3.4,11.2-10
		c0.2-1.3,0.6-6.9,0.6-16.9h25.5v3.7c0,8-0.3,13.5-0.5,16c-0.8,5.5-2.8,10.5-5.8,14.9c-6.9,10-17.2,14.9-30.2,14.9
		c-13,0-23-4.7-30.2-14.1c-5.3-6.9-8-17.7-8-32.3v-48.2c0-14.7,2.4-25.4,7.7-32.4c7.2-9.4,17.2-14.1,29.9-14.1
		c12.5,0,22.5,4.7,29.5,14.1c5.2,7,7.7,17.7,7.7,32.4V441.7z M486.5,441.7"/>
	<path id="XMLID_510_" class="st0" d="M249.6,259.5V184L283.3,73H255l-19.1,73.2L216,73h-29.5c5.9,17.3,12.1,34.7,17.9,52
		c9,26,14.6,45.6,17.1,59v75.5H249.6z M249.6,259.5"/>
	<path id="XMLID_34_" class="st0" d="M315.3,261.5c12.6,0,22.4-4.8,29.4-14.2c5.3-6.9,7.9-17.9,7.9-32.7v-48.7
		c0-14.8-2.6-25.7-7.9-32.7c-7-9.5-16.8-14.3-29.4-14.3c-12.6,0-22.4,4.7-29.4,14.3c-5.4,7-7.9,17.9-7.9,32.7v48.7
		c0,14.8,2.5,25.8,7.9,32.7C292.8,256.7,302.6,261.5,315.3,261.5L315.3,261.5z M303.2,160.8c0-12.9,3.9-19.3,12.1-19.3
		c8.1,0,12,6.4,12,19.3v58.5c0,12.9-3.9,19.3-12,19.3c-8.1,0-12.1-6.4-12.1-19.3V160.8z M303.2,160.8"/>
	<path id="XMLID_31_" class="st0" d="M444.4,259.5v-139h-25.2v106.3c-5.6,7.9-10.9,11.8-15.9,11.8c-3.4,0-5.4-2-5.9-5.9
		c-0.3-0.8-0.3-3.9-0.3-9.8V120.5h-25.2v109.9c0,9.8,0.8,16.5,2.2,20.7c2.5,7,8.1,10.3,16.3,10.3c9.2,0,18.8-5.6,28.8-17.1v15.1
		H444.4z M444.4,259.5"/>
</g>
</svg>
